# xmcd
# 
# Track frame offsets:
#     150
#     32953
#     57635
#     82623
#     117584
#     164486
#     188766
#     203492
#     233049
# 
# Disc length: 3749
# 
# Revision: 1
# Processed by: cddbd v1.5.2PL0 Copyright (c) Steve Scherf et al.
# Submitted via: fre:ac v1.0.27
# 
DISCID=720ea309
DTITLE=Various Artist - Jazz Signatures Vol. 3
DYEAR=2009
DGENRE=Jazz
TTITLE0=Horace Silver - Song For My Father
TTITLE1=Kenny Burrell - Chitlins con Carne
TTITLE2=Herbie Hancock - Cantaloupe Island
TTITLE3=Grant Green - Tico Tico
TTITLE4=Lee Morgan - The Sidewinder
TTITLE5=Miles Davis - Well, You Needn't
TTITLE6=Thelonious Monk - Ask Me Now
TTITLE7=Dexter Gordon - Cheese Cake
TTITLE8=John Coltrane - Blue Train
EXTD=YEAR: 2009
EXTT0=
EXTT1=
EXTT2=
EXTT3=
EXTT4=
EXTT5=
EXTT6=
EXTT7=
EXTT8=
PLAYORDER=
